PathFileType	4	(X/Y/Z)	pose_F01_0-88.trc
DataRate	CameraRate	NumFrames	NumMarkers	Units	OrigDataRate	OrigDataStartFrame	OrigNumFrames
30	30	7	21	m	30	66	88
Frame#	Time	CHip			RHip			RKnee			RAnkle			RBigToe			RSmallToe			RHeel			LHip			LKnee			LAnkle			LBigToe			LSmallToe			LHeel			Neck			Nose			RShoulder			RElbow			RWrist			LShoulder			LElbow			LWrist			
		X1	Y1	Z1	X2	Y2	Z2	X3	Y3	Z3	X4	Y4	Z4	X5	Y5	Z5	X6	Y6	Z6	X7	Y7	Z7	X8	Y8	Z8	X9	Y9	Z9	X10	Y10	Z10	X11	Y11	Z11	X12	Y12	Z12	X13	Y13	Z13	X14	Y14	Z14	X15	Y15	Z15	X16	Y16	Z16	X17	Y17	Z17	X18	Y18	Z18	X19	Y19	Z19	X20	Y20	Z20	X21	Y21	Z21	
66	2.2	-0.22625503263889968	1.8838403206549557	-0.49921583892266225	-0.22925138278082102	1.8797001410806478	-0.4380098377163819	-0.24897274051292304	1.7251964593233804	-0.3984194735453549	-0.25615532007637953	1.5619250673535914	-0.34192555219840326	-0.2176918516063524	1.5197901484163117	-0.39961141564907016	-0.22298825499827368	1.519590306268908	-0.3553650715821702	-0.2638462922425762	1.5577948668335653	-0.33324797838526904	-0.22255602693416338	1.8869102273526384	-0.5601202296760062	-0.2190817846100028	1.7335198522321098	-0.5792702245097935	-0.23984542514981838	1.584789797431491	-0.5738275131907007	-0.20477390200262363	1.5449913581906036	-0.6288318917252332	-0.20960233923631422	1.554940834229835	-0.6505060389272066	-0.24356272166872592	1.568260633208998	-0.5554606988265459	-0.21519937393498367	2.0561983451191614	-0.525502807636459	-0.1649681522160841	2.1127608946475585	-0.582006377086552	-0.20814896447663825	2.0587496290444243	-0.44300734683603565	-0.22762267991607943	1.9694305116819488	-0.36620641244100355	-0.2081636592976263	1.8941330557316378	-0.3797157898263575	-0.21899768888898555	2.0562982964660335	-0.6009285532497363	-0.20091585112340551	1.9798382955929652	-0.6635952466769532	-1.4831336207476442	1.890733577925168	0.7309118853990628
67	2.2333333333333334	-0.22540786264511187	1.87853255357035	-0.4952281198500165	-0.23001837208142395	1.8753504149238907	-0.4317871643827893	-0.247809383204507	1.7212291157936	-0.3947136285171102	-0.2576791302637904	1.5625526453723735	-0.34044547111907125	-0.21758390090348168	1.5205335823843822	-0.3998896682991096	-0.22640537791469964	1.5222017665467222	-0.3521978234677739	-0.26347374812695734	1.5607728713911975	-0.3345139618198542	-0.2235260584282015	1.8817196127910547	-0.5624318244663354	-0.21786476239806538	1.7307394320373948	-0.5760368871066547	-0.23957002425812812	1.5862539312010868	-0.5742548324913579	-0.2036328135475254	1.5453570689651408	-0.6342978962170122	-0.20748351561251263	1.5551739143007894	-0.652807806763584	-0.24358257678023307	1.568488049391511	-0.5553044229024775	-0.21433410869602204	2.0551310465463115	-0.5226830649678759	-0.16232397030432533	2.11415797291722	-0.5724140886112259	-0.2119282312761809	2.0586111733157995	-0.4385297299727847	-0.2320487386251397	1.971016527888528	-0.3565179017133301	-0.20791532043503658	1.897798077385763	-0.3714284318488586	-0.2178432233293194	2.0553769522229914	-0.6062575916219806	-0.20213448904823691	1.9775011994293292	-0.6667061778622333	-0.12347502157588365	1.9963771714496046	-0.714041876930132
68	2.2666666666666666	-0.22541264407458556	1.880027164865165	-0.4954742823699784	-0.2301331973373128	1.8768396440494985	-0.4320319316741269	-0.24651555642787468	1.722501302909207	-0.39173330894919	-0.2578865944935356	1.5607955880757032	-0.34021067787662673	-0.21747595020061095	1.5212770163524527	-0.40016792094914905	-0.2244182308538732	1.52014415547745	-0.3538188547632819	-0.2648638013282514	1.5560709102623511	-0.33723981189827384	-0.2206083866719067	1.883264860320668	-0.5618170483296782	-0.21780123111614524	1.7307127882899658	-0.5760450884409234	-0.23948104901418957	1.5851996695395736	-0.5746199832971456	-0.20382288549882205	1.5434216572672017	-0.6340446929899596	-0.2098691197455811	1.5533482434659975	-0.6503400555009302	-0.24461167674738118	1.5683475673413048	-0.5586042761888813	-0.21624263332440255	2.0550057974304328	-0.520388515809917	-0.16347804600018098	2.1148625290634064	-0.5668469183154774	-0.21290501382179441	2.0584280691025736	-0.4332370750233234	-0.23683978591372026	1.96890552938474	-0.35492612741625823	-0.20986569792538995	1.8953386722477699	-0.36869562641605447	-0.2128224866037874	2.0558301112748	-0.6081880771868924	-0.20485115041912275	1.9791300683483488	-0.6763492912949012	-0.12594583197198808	1.9939255462232124	-0.7116209654074084
69	2.3	-0.22255878698979745	1.8815372959211565	-0.494767118450765	-0.2291597870408962	1.8782132480451783	-0.4290492881123885	-0.24667025780082716	1.7236788684439912	-0.3917111280210844	-0.2559598605784857	1.5606146027475065	-0.3422437975669942	-0.21896510568835129	1.5229196070170263	-0.39649643727835343	-0.22387655777986315	1.5212076136986288	-0.3523657129084302	-0.2642926462583994	1.5586819591353087	-0.33839966558164264	-0.2144448022594987	1.8850943065791643	-0.5687222409472942	-0.21753352319978636	1.731725499763221	-0.576495952143345	-0.23951254158921875	1.5852750532408486	-0.5746130914684698	-0.2065699242630411	1.5442803095663733	-0.6356798949641458	-0.20977609601978303	1.554300122329518	-0.6504578594175807	-0.24323470870028488	1.5688173361793682	-0.5559418018082836	-0.21535915101115546	2.0548360161586015	-0.5173485492018134	-0.16543570222825163	2.116205333852449	-0.5651966413978734	-0.2148811650691708	2.0583941185892494	-0.43098426640672816	-0.23896549096355355	1.9690401462656146	-0.3530617069759648	-0.21403808161047758	1.8941822989863657	-0.36433015155249293	-0.20778440313005933	2.0546519651731217	-0.6097660301657752	-0.20541881067591838	1.980080044208306	-0.6779821064816671	-0.12594583197198808	1.9939255462232124	-0.7116209654074084
70	2.3333333333333335	-0.22332904221313407	1.882763633143903	-0.49811303387407196	-0.23023249490231135	1.878385202107269	-0.4323753638683146	-0.2464641530661045	1.724872995131912	-0.3920176594476358	-0.25590580148300707	1.5605062353107284	-0.34238680687742756	-0.22045426117609163	1.5245621976816002	-0.3928249536075578	-0.22333488470585314	1.5222710719198074	-0.3509125710535785	-0.2644807106022071	1.5568406866185551	-0.33799027812167676	-0.21213876492591924	1.8863411013865539	-0.5712355774824225	-0.21647929944782726	1.7316848010925645	-0.5817910139659612	-0.23933075351816976	1.584573810876989	-0.574668588414157	-0.2045854944741838	1.5438322444560424	-0.6292631782977667	-0.20968307229398497	1.5552520011930389	-0.6505756633342313	-0.24379141905502774	1.5692235727274757	-0.5554483773612197	-0.2183161746396068	2.0561092778021957	-0.5186429119939959	-0.17136851750888907	2.12027549699046	-0.5586981425922442	-0.21970440106222364	2.0598364517929597	-0.430353343167712	-0.24923839558927002	1.9696885051916881	-0.345638409517014	-0.21775642272666326	1.8973771310868923	-0.3604475575921549	-0.2069659474544815	2.0559239494479815	-0.6071742312663799	-0.2064560821994709	1.9866065007148614	-0.6831488462276769	-0.12594583197198808	1.9939255462232124	-0.7116209654074084
71	2.3666666666666667	-0.223315852678157	1.8854158852849678	-0.4985463443320019	-0.2300493311888733	1.8820816976475365	-0.4330200545022754	-0.24649744644839766	1.7250386736764085	-0.39203607467377827	-0.2562879895237816	1.562847383152793	-0.3418599084224077	-0.22014244680268116	1.523515106028018	-0.3945858505944372	-0.22545801032413534	1.5216917656896511	-0.35771128123686663	-0.2648428533707888	1.556988713970646	-0.3367009579281887	-0.21200443640535252	1.8900843571072243	-0.5717550872163131	-0.2166150955209456	1.7360847888867348	-0.5822673059992425	-0.23959073485732565	1.5861056485435387	-0.57438116660303	-0.20338000168410753	1.5441322064766723	-0.634607971116912	-0.2089893662967036	1.5545246217094515	-0.6512340407584107	-0.24358161017940005	1.5681868293331604	-0.555307774604169	-0.21756142270535594	2.0587141008128627	-0.516669645349475	-0.18027453737368745	2.1249087879340247	-0.5536960110372849	-0.22748581210653268	2.0585656435669466	-0.42188292242249625	-0.2530898305740423	1.9702131070115128	-0.34174488395667285	-0.22150833223291677	1.8958579208083144	-0.3554963985484713	-0.20590734094213414	2.0609139452795775	-0.6048737485821427	-0.20639015114306505	1.995700062192182	-0.6850815203481855	-0.12594583197198808	1.9939255462232124	-0.7116209654074084
72	2.4	-0.22414958467875953	1.8907021939559852	-0.5026868694959684	-0.2320812372719775	1.8862871250078974	-0.44025916318461894	-0.24752606544714936	1.7250229680525395	-0.3953471845147445	-0.2559765629527474	1.5605572993954848	-0.3422750572889474	-0.2198306324292707	1.5224680143744362	-0.3963467475813165	-0.22471197224325723	1.5212851504857112	-0.3538537322820689	-0.26486717549702654	1.5566064097731318	-0.3369432888128391	-0.21181840988988768	1.8953104119197477	-0.5727349542290371	-0.2181145697923426	1.7414545242052308	-0.5811884530116905	-0.2393798665396528	1.5848255368906834	-0.5746179508690132	-0.20321751607607055	1.5432556097632169	-0.6346725094963815	-0.20829566029942218	1.5537972422258644	-0.6518924181825902	-0.24359915346015854	1.5684100704303672	-0.5553877754300528	-0.21944808578863026	2.0586204782403987	-0.5145642985693561	-0.1832187763559448	2.1272152085287983	-0.5542870130359745	-0.22941340231304547	2.0584574495777255	-0.41971603862042134	-0.2552505864226269	1.9679365048534616	-0.33967896404904263	-0.22337016003546553	1.8962614612322843	-0.35333518017124504	-0.2058602917218354	2.0623072725800133	-0.6052427507522852	-0.20751309580354643	2.0034898741281424	-0.6814900320533169	-0.12594583197198808	1.9939255462232124	-0.7116209654074084
